<?xml version="1.0" ?><svg id="Icons" style="enable-background:new 0 0 32 32;" version="1.1" viewBox="0 0 32 32" xml:space="preserve" xmlns="http://www.w3.org/2000/svg" xmlns:xlink="http://www.w3.org/1999/xlink"><path d="M24,3H8C5.2,3,3,5.2,3,8v16c0,2.8,2.2,5,5,5h16c2.8,0,5-2.2,5-5V8C29,5.2,26.8,3,24,3z M22,21h-8c-0.6,0-1-0.4-1-1  s0.4-1,1-1h8c0.6,0,1,0.4,1,1S22.6,21,22,21z M22,17H12c-0.6,0-1-0.4-1-1s0.4-1,1-1h10c0.6,0,1,0.4,1,1S22.6,17,22,17z M22,13H10  c-0.6,0-1-0.4-1-1s0.4-1,1-1h12c0.6,0,1,0.4,1,1S22.6,13,22,13z"/></svg>